# xmcd
#
# Track frame offsets: 
#        150
#        23220
#        46540
#        60165
#        74308
#        89565
#        106890
#        139495
#        158008
#        181768
#        196620
#        226805
#        243233
#        262815
#        283635
#        308515
#
# Disc length: 4325 seconds
#
# Revision: 6
# Processed by: cddbd v1.5.2PL0 Copyright (c) Steve Scherf et al.
# Submitted via: ExactAudioCopy v0.99pb5
#
DISCID=c010e310
DTITLE=Peps Persson - Peps Bitar 1968-1992 [CD1'2)
DYEAR=1993
DGENRE=Blues
TTITLE0=Dimples
TTITLE1=Copenhagen blues
TTITLE2=The way you touch me
TTITLE3=Born in the country
TTITLE4=Falsk matematik
TTITLE5=Himlen gråter
TTITLE6=Onådens år
TTITLE7=Se opp!
TTITLE8=Hög standard
TTITLE9=Persson ifrån stan
TTITLE10=Styr den opp
TTITLE11=Auktionsvisa
TTITLE12=En död i Skönhed
TTITLE13=Låftamannen
TTITLE14=Liden såg
TTITLE15=Hem, hem, hem
EXTD=
EXTT0=
EXTT1=
EXTT2=
EXTT3=
EXTT4=
EXTT5=
EXTT6=
EXTT7=
EXTT8=
EXTT9=
EXTT10=
EXTT11=
EXTT12=
EXTT13=
EXTT14=
EXTT15=
PLAYORDER=
